<svg width="480" height="298" viewBox="0 0 480 298" fill="none" xmlns="http://www.w3.org/2000/svg">
<path d="M36.8803 239.855C16.6391 232.829 5.9261 210.724 12.9521 190.483C19.9782 170.242 42.0827 159.529 62.3239 166.555C82.5651 173.581 110.285 201.589 103.259 221.83C96.2326 242.071 57.1215 246.881 36.8803 239.855Z" fill="#CCE4EB"/>
<path d="M72.961 212.081C73.6135 210.202 75.6923 209.216 77.6042 209.88C79.516 210.543 80.537 212.605 79.8845 214.485C79.2321 216.364 77.1532 217.35 75.2414 216.687C73.3295 216.023 72.3085 213.961 72.961 212.081Z" fill="#030303"/>
<path d="M52.3633 186.053C53.0158 184.173 55.0946 183.187 57.0065 183.851C58.9184 184.514 59.9393 186.576 59.2869 188.456C58.6344 190.336 56.5556 191.321 54.6437 190.658C52.7318 189.994 51.7109 187.932 52.3633 186.053Z" fill="#030303"/>
<path d="M30.3815 205.006C31.9502 202.349 36.4393 202.093 40.4082 204.436C44.3771 206.779 46.323 210.832 44.7543 213.49C43.1857 216.147 38.6966 216.403 34.7277 214.06C30.7588 211.717 28.8129 207.664 30.3815 205.006Z" fill="#030303"/>
<ellipse rx="35.6745" ry="3.73657" transform="matrix(-1 0 0 1 422.142 241.228)" fill="#030303"/>
<path d="M456.016 206.157C456.016 227.583 438.647 244.952 417.221 244.952C395.795 244.952 378.426 227.583 378.426 206.157C378.426 184.731 395.795 149.36 417.221 149.36C438.647 149.36 456.016 184.731 456.016 206.157Z" fill="#CCE4EB"/>
<path d="M434.112 186.918C432.123 186.918 430.51 185.277 430.51 183.253C430.51 181.229 432.123 179.589 434.112 179.589C436.102 179.589 437.715 181.229 437.715 183.253C437.715 185.277 436.102 186.918 434.112 186.918Z" fill="#030303"/>
<path d="M412.452 213.211C409.427 212.601 407.714 208.444 408.625 203.926C409.537 199.408 412.728 196.241 415.753 196.851C418.778 197.462 420.491 201.619 419.58 206.137C418.668 210.654 415.477 213.822 412.452 213.211Z" fill="#030303"/>
<path fill-rule="evenodd" clip-rule="evenodd" d="M410.294 237.492C431.72 237.492 449.089 220.123 449.089 198.697C449.089 186.074 443.061 168.612 433.727 156.394C446.892 167.805 456.003 190.639 456.003 206.157C456.003 227.583 438.634 244.952 417.208 244.952C404.13 244.952 392.563 238.481 385.535 228.565C392.253 234.14 400.882 237.492 410.294 237.492Z" fill="#030303"/>
<path fill-rule="evenodd" clip-rule="evenodd" d="M14.9839 220.691C19.3642 229.362 26.9857 236.407 36.8871 239.844C57.1283 246.87 96.2395 242.06 103.266 221.819C106.811 211.605 101.51 199.415 92.7866 188.94C97.369 196.956 99.394 205.323 96.8446 212.667C89.8186 232.908 50.7075 237.718 30.4663 230.692C24.3647 228.574 19.129 225.086 14.9839 220.691Z" fill="#030303"/>
<ellipse rx="46.7991" ry="3.73667" transform="matrix(-1 0 0 1 63.7087 241.228)" fill="#030303"/>
<ellipse rx="131.736" ry="7.28817" transform="matrix(-1 0 0 1 277.014 281.485)" fill="#030303"/>
<ellipse rx="18.4582" ry="2.3405" transform="matrix(-1 0 0 1 76.5652 279.894)" fill="#030303"/>
<ellipse rx="15.2935" ry="1.89449" transform="matrix(-1 0 0 1 464.382 279.297)" fill="#030303"/>
<ellipse rx="11.1264" ry="1.88192" transform="matrix(-1 0 0 1 409.62 295.899)" fill="#030303"/>
<ellipse rx="12.8173" ry="2.49925" transform="matrix(-1 0 0 1 29.7295 288.402)" fill="#030303"/>
<path d="M400.699 138.616C400.699 138.616 312.953 166.422 252.812 166.422C192.671 166.422 104.603 138.231 104.603 138.231L125.515 191.859H379.748L400.699 138.616Z" fill="#030303"/>
<path d="M223.178 13.8774C223.178 13.8774 224.042 13.5575 226.082 13.7953C226.49 13.8429 290.064 11.1601 322.853 35.1702C323.621 35.6803 324.293 37.0204 324.15 38.2654C324.006 39.5104 322.183 40.9801 320.551 40.7898C320.142 40.7423 319.734 40.6947 319.326 40.6471C317.79 39.6269 307.613 34.6553 297.702 38.1263C268.874 19.2044 206.427 15.7098 223.178 13.8774Z" fill="#3F95FF"/>
<path d="M129.029 121.272C129.394 131.671 131.585 142.071 134.506 151.727C141.809 175.125 156.78 195.181 175.768 209.294C192.199 226.378 213.742 238.634 238.572 243.091C291.883 252.376 353.592 227.121 374.405 168.069C375.866 164.355 376.961 160.641 378.057 156.555C378.057 156.184 378.422 155.441 378.422 155.07C378.422 152.098 376.231 149.87 373.31 149.87C371.849 149.87 370.389 150.613 369.293 151.727C366.737 154.698 361.26 155.812 357.974 155.812C361.99 145.413 364.546 134.271 365.277 122.386V122.015C365.277 119.044 363.086 116.815 360.165 116.815C358.704 116.815 357.244 117.558 356.513 118.301C341.908 129.443 324.016 129.814 312.331 127.215C305.028 125.729 299.186 123.129 292.613 119.415C303.202 107.159 309.775 90.8175 309.775 72.9904C309.775 52.192 301.012 33.2506 286.771 20.2517C295.169 16.1663 304.663 20.2517 306.124 20.6231C306.489 20.6231 306.854 20.9945 307.219 20.9945C308.68 20.9945 310.14 19.8803 310.14 18.0233C310.14 16.9091 309.41 16.1663 308.68 15.4235C278.008 -3.88927 235.286 0.938921 222.506 2.79592C222.141 2.79592 221.776 2.79592 221.41 2.79592C219.95 3.16732 218.854 3.16732 218.854 3.16732C204.249 6.13851 190.008 12.0809 177.958 20.6231C177.958 20.6231 169.925 26.1941 162.622 33.2506C139.253 57.3916 129.029 82.6467 129.029 115.701C129.029 117.93 129.394 119.787 129.029 121.272C129.029 121.272 129.394 121.272 129.029 121.272Z" fill="#3F95FF"/>
<path d="M112.594 99.731C112.594 99.731 112.594 114.958 129.026 121.643C129.026 121.643 128.661 108.645 130.121 99.731H112.594Z" fill="#F59421"/>
<path fill-rule="evenodd" clip-rule="evenodd" d="M97.9916 142.813V143.556V144.299C103.469 225.264 159.336 288.773 252.812 288.773C345.924 288.773 402.156 225.264 407.633 144.299V143.927V143.556C407.633 140.585 405.442 138.356 402.521 138.356C401.06 138.356 399.965 138.728 398.869 139.842C398.527 140.288 398.182 140.732 397.836 141.175C397.836 141.172 397.836 141.169 397.836 141.165C397.474 141.597 397.171 141.986 396.914 142.344C395.012 144.736 393.055 147.08 391.045 149.375C390.651 149.296 390.255 149.113 389.858 148.929C388.949 148.509 388.033 148.086 387.113 148.898C386.165 149.736 385.214 151.765 384.256 153.81C383.246 155.964 382.228 158.136 381.195 158.957C376.519 162.675 366.995 169.044 361.992 172.154C361.261 172.525 360.166 172.897 359.07 172.525L336.797 165.097C335.336 164.726 333.876 165.097 333.145 166.211L316.714 188.124C314.158 191.467 310.872 193.695 306.855 194.438C306.672 194.438 306.399 194.531 306.125 194.623C305.851 194.716 305.577 194.809 305.394 194.809C301.743 195.552 297.726 195.18 294.075 193.324L287.867 190.352C287.137 189.981 286.407 189.981 285.677 190.352L277.643 196.295C274.722 198.152 271.436 199.637 268.15 199.637C266.689 199.637 264.863 199.637 263.403 200.009C259.751 200.009 256.1 199.266 253.179 197.409L218.855 176.239C215.934 174.382 212.283 174.754 209.727 176.611L195.851 187.381C191.835 190.352 186.723 191.467 181.976 189.981C179.055 189.238 176.499 187.381 174.674 184.781L167.006 175.125C165.91 173.639 163.719 172.897 161.893 173.268L154.225 175.125C151.669 175.868 148.748 175.496 146.192 174.011C140.35 170.297 134.508 166.583 129.031 162.126C127.57 160.64 126.109 159.155 125.379 156.926L122.093 148.013C121.728 146.899 120.267 146.156 119.172 146.899L116.616 148.756C115.885 149.498 114.79 149.127 114.06 148.384C113.566 147.798 113.053 147.212 112.53 146.625C110.676 144.408 108.872 142.146 107.12 139.842C106.025 138.728 104.564 137.985 103.104 137.985C100.548 137.985 98.3568 140.213 97.9916 142.813Z" fill="#F8FDFF"/>
<path d="M101.275 96.0174C101.275 94.9032 101.64 94.1604 102.371 93.4176C107.483 84.8754 121.358 66.6768 139.98 64.8198C139.98 64.8198 133.043 76.7046 129.756 99.7313H104.927C103.101 99.3599 101.275 97.8743 101.275 96.0174Z" fill="#FFC700"/>
<path d="M177.721 20.7959C177.721 20.7959 169.116 26.2357 162.178 33.6637C138.809 58.176 129.026 83.0184 129.026 116.073C129.026 117.93 129.026 119.787 129.026 121.644C163.349 129.815 204.742 68.7064 177.721 20.7959Z" fill="#030303"/>
<path fill-rule="evenodd" clip-rule="evenodd" d="M394.521 145.294C386.268 216.166 332.41 270.738 245.114 270.738C173.176 270.738 124.215 233.969 104.428 181.597C122.289 243.944 174.277 288.773 252.812 288.773C345.924 288.773 402.156 225.264 407.633 144.299V143.927V143.556C407.633 140.585 405.442 138.356 402.521 138.356C401.06 138.356 399.965 138.728 398.869 139.842C397.452 141.687 396.002 143.504 394.521 145.294Z" fill="#030303"/>
<path d="M292.611 119.044C292.611 119.044 282.387 131.672 263.764 139.1C263.764 139.1 292.611 139.471 305.391 125.358C305.391 125.358 300.644 124.244 292.611 119.044Z" fill="#030303"/>
<path d="M150.573 64.8197C153.494 58.5059 158.606 54.4205 162.622 55.9061C167.004 57.3917 168.099 64.8197 165.178 72.2477C162.257 79.6757 156.78 84.5039 152.398 83.0183C152.033 83.0183 151.668 82.6469 151.668 82.6469C152.033 81.9041 152.398 81.5327 152.398 80.7899C155.319 73.7333 154.224 67.0481 150.573 64.8197Z" fill="white"/>
<path d="M206.087 253.821C209.657 244.437 217.46 238.651 223.517 240.898C229.574 243.144 231.591 252.573 228.021 261.957C224.452 271.341 216.648 277.127 210.592 274.88C204.535 272.634 202.518 263.205 206.087 253.821Z" fill="#030303"/>
<path d="M331.052 229.314C324.612 228.899 319.836 221.427 320.384 212.625C320.932 203.822 326.598 197.023 333.038 197.438C339.478 197.853 344.255 205.325 343.706 214.128C343.158 222.93 337.493 229.729 331.052 229.314Z" fill="#030303"/>
<path d="M188.909 234.549C186.288 234.549 184.163 232.388 184.163 229.721C184.163 227.055 186.288 224.893 188.909 224.893C191.531 224.893 193.656 227.055 193.656 229.721C193.656 232.388 191.531 234.549 188.909 234.549Z" fill="#030303"/>
<path d="M147.79 209.501C144.999 210.374 141.612 207.486 140.225 203.051C138.838 198.616 139.976 194.313 142.767 193.44C145.558 192.567 148.945 195.455 150.332 199.89C151.719 204.326 150.581 208.629 147.79 209.501Z" fill="#030303"/>
<path d="M305.757 228.978C303.135 228.978 301.01 226.817 301.01 224.15C301.01 221.483 303.135 219.322 305.757 219.322C308.379 219.322 310.504 221.483 310.504 224.15C310.504 226.817 308.379 228.978 305.757 228.978Z" fill="#030303"/>
</svg>
