<svg width="42" height="33" viewBox="0 0 42 33" fill="none" xmlns="http://www.w3.org/2000/svg">
<rect x="5.75391" y="5.38037" width="30.2366" height="23.5174" rx="0.829271" fill="white"/>
<path d="M9.11523 9.15438C9.11523 8.92538 9.30087 8.73975 9.52987 8.73975H32.218C32.4469 8.73975 32.6326 8.92538 32.6326 9.15438V27.2177H9.11523V9.15438Z" fill="#454545"/>
<rect x="12.4746" y="12.0996" width="16.7981" height="11.7587" rx="0.414635" fill="#9F9F9F"/>
<path d="M0.714844 27.6319C0.714844 27.4029 0.900482 27.2173 1.12948 27.2173H40.6157C40.8447 27.2173 41.0303 27.4029 41.0303 27.6319V31.0128C41.0303 31.6998 40.4734 32.2567 39.7864 32.2567H1.95875C1.27176 32.2567 0.714844 31.6998 0.714844 31.0128V27.6319Z" fill="white"/>
<circle cx="33.4691" cy="7.90021" r="5.78534" fill="white" stroke="#454545" stroke-width="3.17162"/>
</svg>
